Coordinates
version=1
nRows=18
nColumns=22
inDegrees=yes

Units are S.I. units (second, meters, Newtons, ...)
If the header above contains a line with 'inDegrees', this indicates whether rotational values are in degrees (yes) or radians (no).

endheader
time	pelvis_tilt	pelvis_list	pelvis_rotation	pelvis_tx	pelvis_ty	pelvis_tz	hip_flexion_r	hip_adduction_r	hip_rotation_r	knee_angle_r	ankle_angle_r	subtalar_angle_r	hip_flexion_l	hip_adduction_l	hip_rotation_l	knee_angle_l	ankle_angle_l	subtalar_angle_l	lumbar_extension	lumbar_bending	lumbar_rotation
      2.68000000	      2.70925342	     -3.63962422	     31.30532290	      0.19046063	      1.05762552	      0.98066219	     19.99842058	      5.12899068	      7.77899754	    -18.13337365	      4.19506306	      6.81099978	     -9.66676155	      1.45504578	     13.51131888	    -24.06346062	     15.86922392	     -3.39704174	     -4.24093549	      1.47746666	    -10.11079200
      2.69000000	      2.96289432	     -3.77581404	     31.97907962	      0.19955191	      1.05847297	      0.97591517	     19.67858422	      5.35771285	      7.51465504	    -18.89032341	      4.22000171	      6.37958600	     -9.34943810	      1.14278091	     13.61286579	    -25.79203114	     14.78457157	     -2.11600679	     -4.09747977	      1.75354800	    -10.28696040
      2.70000000	      3.20852417	     -3.87069321	     32.68127400	      0.20855213	      1.05942090	      0.97106516	     19.26550626	      5.52884501	      7.19619045	    -19.49605214	      4.34959880	      5.83399000	     -8.93301879	      0.86901311	     13.68497641	    -27.65980747	     13.48254344	     -0.63496183	     -3.96958597	      1.98525005	    -10.43962205
      2.71000000	      3.45329151	     -3.93781414	     33.42142030	      0.21743225	      1.06043902	      0.96617044	     18.76531403	      5.66428701	      6.80128058	    -19.95793837	      4.54986602	      5.17502654	     -8.41133706	      0.61073856	     13.72527621	    -29.66187756	     11.95809900	      0.99603221	     -3.86523854	      2.18184416	    -10.60668006
      2.72000000	      3.69627672	     -3.98264043	     34.18128389	      0.22616560	      1.06149492	      0.96124400	     18.17938640	      5.77354120	      6.34090032	    -20.27017552	      4.80786014	      4.42087928	     -7.78396542	      0.35966748	     13.69328935	    -31.77851086	     10.22591663	      2.76950774	     -3.78444289	      2.35373233	    -10.73874317
      2.73000000	      3.94233491	     -4.01346310	     34.95492121	      0.23471815	      1.06257343	      0.95634248	     17.51480374	      5.87354284	      5.82726258	    -20.43987275	      5.07933150	      3.61977931	     -7.04764923	      0.10064369	     13.57672742	    -33.99794682	      8.30213038	      4.67091344	     -3.73654492	      2.50826771	    -10.83036697
      2.74000000	      4.19995289	     -4.04104728	     35.75140509	      0.24303879	      1.06363034	      0.95145891	     16.78712276	      5.96893413	      5.20208555	    -20.48931557	      5.39996911	      2.82933928	     -6.19884572	     -0.18333784	     13.38680950	    -36.31901314	      6.26999182	      6.61530326	     -3.72733426	      2.66648283	    -10.88873019
      2.75000000	      4.47243153	     -4.07039156	     36.54970366	      0.25112790	      1.06465554	      0.94663758	     16.00411607	      6.07585399	      4.50943923	    -20.42887223	      5.74650067	      2.10368557	     -5.24309794	     -0.50318717	     13.10240573	    -38.71977946	      4.17975064	      8.55441316	     -3.75978187	      2.83549046	    -10.89392829
      2.76000000	      4.76322055	     -4.10477738	     37.33411795	      0.25899060	      1.06563537	      0.94191166	     15.17837847	      6.20585494	      3.77494265	    -20.27965600	      6.10911205	      1.48949902	     -4.18942411	     -0.86707223	     12.72192494	    -41.17753334	      2.11485895	     10.40174464	     -3.83658432	      3.02102039	    -10.83384566
      2.77000000	      5.07554981	     -4.14984682	     38.09670081	      0.26663516	      1.06655851	      0.93730261	     14.32545330	      6.37083874	      3.02053882	    -20.06592193	      6.48245742	      1.00999112	     -3.04749945	     -1.28158643	     12.26736473	    -43.67070717	      0.16070712	     12.03667601	     -3.95658919	      3.23004072	    -10.70710164
      2.78000000	      5.40347406	     -4.20342053	     38.82386659	      0.27409113	      1.06742297	      0.93281454	     13.45773326	      6.57187049	      2.28521109	    -19.80633912	      6.86025840	      0.66330564	     -1.83242935	     -1.74202875	     11.74708000	    -46.16113421	     -1.60826666	     13.37248471	     -4.11163390	      3.45912969	    -10.50833708
      2.79000000	      5.76624149	     -4.27747535	     39.52436578	      0.28137389	      1.06823939	      0.92843949	     12.57721371	      6.83175678	      1.56003186	    -19.51647798	      7.22762558	      0.46194433	     -0.56721211	     -2.26924657	     11.19680406	    -48.62017764	     -3.11308116	     14.19305673	     -4.30610539	      3.73150020	    -10.25236280
      2.80000000	      6.10791128	     -4.33608187	     40.15736953	      0.28856404	      1.06903190	      0.92419919	     11.69771373	      7.09913936	      0.94639749	    -19.19263097	      7.58709779	      0.32386627	      0.73430174	     -2.79136975	     10.61330008	    -50.97988025	     -4.33164098	     14.71949140	     -4.50621027	      3.96831153	     -9.92150273
      2.81000000	      6.44118029	     -4.37496946	     40.74278591	      0.29566915	      1.06984658	      0.92004156	     10.80030432	      7.37216596	      0.41833648	    -18.82607647	      7.91788915	      0.25601638	      2.03796346	     -3.31059465	     10.02548736	    -53.19781739	     -5.22942464	     14.85203010	     -4.71884470	      4.17678889	     -9.53687830
      2.82000000	      6.72915175	     -4.45682724	     41.29626220	      0.30262711	      1.07053524	      0.91600064	     10.00052213	      7.66989904	     -0.07015628	    -18.48921285	      8.24892890	      0.17621439	      3.42646615	     -3.84023177	      9.46294155	    -55.28640700	     -5.73820131	     14.37162195	     -4.87243944	      4.38573421	     -9.11772443
      2.83000000	      7.01834388	     -4.49466309	     41.80132938	      0.30952219	      1.07132606	      0.91200555	      9.15426379	      7.95672175	     -0.48009434	    -18.11050347	      8.51927721	      0.15387697	      4.75291749	     -4.34166864	      8.90291130	    -57.15756909	     -5.94547740	     13.38408649	     -5.06061959	      4.55205946	     -8.66069509
      2.84000000	      7.27565786	     -4.51157473	     42.26734670	      0.31631565	      1.07215881	      0.90804403	      8.30525926	      8.22472240	     -0.80684092	    -17.69190531	      8.74596906	      0.13920097	      6.05765507	     -4.79858062	      8.36494527	    -58.80391991	     -5.90110116	     12.00590394	     -5.23680044	      4.67556739	     -8.18831921
      2.85000000	      7.50018775	     -4.50465033	     42.69785719	      0.32298947	      1.07301985	      0.90410594	      7.46036119	      8.46550224	     -1.07816018	    -17.25034932	      8.95328529	      0.12595179	      7.32743057	     -5.19814012	      7.85692592	    -60.21305770	     -5.59853612	     10.34373656	     -5.40525037	      4.75412131	     -7.70042005
